<mxfile host="app.diagrams.net" modified="2023-04-03T20:53:51.386Z" agent="Mozilla/5.0 (Windows NT 10.0; Win64; x64) AppleWebKit/537.36 (KHTML, like Gecko) Chrome/111.0.0.0 Safari/537.36" etag="EuhkStU7vehBE684TYF4" version="21.1.2" type="device">
  <diagram name="Страница 1" id="9Xc5u7ofYKPuOsVl6prk">
    <mxGraphModel dx="3033" dy="1175" grid="1" gridSize="10" guides="1" tooltips="1" connect="1" arrows="1" fold="1" page="1" pageScale="1" pageWidth="827" pageHeight="1169" math="0" shadow="0">
      <root>
        <mxCell id="0" />
        <mxCell id="1" parent="0" />
        <mxCell id="BQe-CCMixdXJj6wNmX5B-1" value="ioc.core.ts" style="swimlane;whiteSpace=wrap;html=1;rounded=1;dashed=1;fillColor=#dae8fc;strokeColor=#6c8ebf;" parent="1" vertex="1">
          <mxGeometry x="-20" y="60" width="120" height="740" as="geometry" />
        </mxCell>
        <mxCell id="BQe-CCMixdXJj6wNmX5B-5" style="edgeStyle=orthogonalEdgeStyle;rounded=0;orthogonalLoop=1;jettySize=auto;html=1;exitX=0;exitY=0.5;exitDx=0;exitDy=0;fillColor=#d5e8d4;strokeColor=#82b366;" parent="1" source="BQe-CCMixdXJj6wNmX5B-6" edge="1">
          <mxGeometry relative="1" as="geometry">
            <mxPoint x="99.99999999999977" y="499.7142857142858" as="targetPoint" />
          </mxGeometry>
        </mxCell>
        <mxCell id="BQe-CCMixdXJj6wNmX5B-6" value="core.manager.ts" style="rounded=1;whiteSpace=wrap;html=1;fillColor=#d5e8d4;strokeColor=#82b366;" parent="1" vertex="1">
          <mxGeometry x="330" y="480" width="180" height="40" as="geometry" />
        </mxCell>
        <mxCell id="BQe-CCMixdXJj6wNmX5B-10" value="bind&lt;br&gt;Symbol(&#39;CoreManager&#39;)" style="edgeLabel;html=1;align=center;verticalAlign=middle;resizable=0;points=[];labelBackgroundColor=#CDA2BE;" parent="1" vertex="1" connectable="0">
          <mxGeometry x="219.99714285714265" y="420" as="geometry">
            <mxPoint x="3" y="82" as="offset" />
          </mxGeometry>
        </mxCell>
        <mxCell id="BQe-CCMixdXJj6wNmX5B-12" style="edgeStyle=orthogonalEdgeStyle;rounded=1;orthogonalLoop=1;jettySize=auto;html=1;entryX=1;entryY=0.5;entryDx=0;entryDy=0;fillColor=#dae8fc;strokeColor=#6c8ebf;" parent="1" source="BQe-CCMixdXJj6wNmX5B-15" target="BQe-CCMixdXJj6wNmX5B-6" edge="1">
          <mxGeometry relative="1" as="geometry" />
        </mxCell>
        <mxCell id="3PKz2_B1ySC-uqAKX1qX-9" style="edgeStyle=orthogonalEdgeStyle;rounded=1;orthogonalLoop=1;jettySize=auto;html=1;entryX=1;entryY=0.5;entryDx=0;entryDy=0;fillColor=#dae8fc;strokeColor=#6c8ebf;" edge="1" parent="1" source="BQe-CCMixdXJj6wNmX5B-15" target="3PKz2_B1ySC-uqAKX1qX-7">
          <mxGeometry relative="1" as="geometry">
            <Array as="points">
              <mxPoint x="540" y="500" />
              <mxPoint x="540" y="580" />
            </Array>
          </mxGeometry>
        </mxCell>
        <mxCell id="3PKz2_B1ySC-uqAKX1qX-10" value="extends" style="edgeLabel;html=1;align=center;verticalAlign=middle;resizable=0;points=[];labelBackgroundColor=#CDA2BE;" vertex="1" connectable="0" parent="3PKz2_B1ySC-uqAKX1qX-9">
          <mxGeometry x="-0.6545" y="-1" relative="1" as="geometry">
            <mxPoint as="offset" />
          </mxGeometry>
        </mxCell>
        <mxCell id="BQe-CCMixdXJj6wNmX5B-15" value="abstract.manager.ts" style="rounded=1;whiteSpace=wrap;html=1;fillColor=#dae8fc;strokeColor=#6c8ebf;" parent="1" vertex="1">
          <mxGeometry x="647" y="480" width="180" height="40" as="geometry" />
        </mxCell>
        <mxCell id="BQe-CCMixdXJj6wNmX5B-16" value="methods and properties" style="swimlane;whiteSpace=wrap;html=1;fillColor=#f8cecc;strokeColor=#b85450;rounded=1;" parent="1" vertex="1">
          <mxGeometry x="710" y="540" width="380" height="280" as="geometry" />
        </mxCell>
        <mxCell id="BQe-CCMixdXJj6wNmX5B-17" value="protected abstract readonly&amp;nbsp;_MANAGER_NAME: string" style="rounded=1;whiteSpace=wrap;html=1;fillColor=#fff2cc;strokeColor=#d6b656;" parent="BQe-CCMixdXJj6wNmX5B-16" vertex="1">
          <mxGeometry x="10" y="45" width="360" height="30" as="geometry" />
        </mxCell>
        <mxCell id="BQe-CCMixdXJj6wNmX5B-18" value="protected abstract start(): Promise&amp;lt;void&amp;gt;" style="rounded=1;whiteSpace=wrap;html=1;fillColor=#fff2cc;strokeColor=#d6b656;" parent="BQe-CCMixdXJj6wNmX5B-16" vertex="1">
          <mxGeometry x="10" y="90" width="360" height="30" as="geometry" />
        </mxCell>
        <mxCell id="BQe-CCMixdXJj6wNmX5B-24" value="protected abstract setApplication(app: ApplicationStorage): void" style="rounded=1;whiteSpace=wrap;html=1;fillColor=#fff2cc;strokeColor=#d6b656;" parent="BQe-CCMixdXJj6wNmX5B-16" vertex="1">
          <mxGeometry x="10" y="140" width="360" height="30" as="geometry" />
        </mxCell>
        <mxCell id="3PKz2_B1ySC-uqAKX1qX-1" value="protected abstract _confService: IConfigurationService" style="rounded=1;whiteSpace=wrap;html=1;fillColor=#fff2cc;strokeColor=#d6b656;" vertex="1" parent="BQe-CCMixdXJj6wNmX5B-16">
          <mxGeometry x="10" y="190" width="360" height="30" as="geometry" />
        </mxCell>
        <mxCell id="3PKz2_B1ySC-uqAKX1qX-5" value="protected abstract _loggerService: ILoggerService" style="rounded=1;whiteSpace=wrap;html=1;fillColor=#fff2cc;strokeColor=#d6b656;" vertex="1" parent="BQe-CCMixdXJj6wNmX5B-16">
          <mxGeometry x="10" y="240" width="360" height="30" as="geometry" />
        </mxCell>
        <mxCell id="BQe-CCMixdXJj6wNmX5B-19" style="edgeStyle=orthogonalEdgeStyle;rounded=1;orthogonalLoop=1;jettySize=auto;html=1;exitX=0;exitY=0.5;exitDx=0;exitDy=0;fillColor=#fff2cc;strokeColor=#d6b656;dashed=1;entryX=0.128;entryY=0.985;entryDx=0;entryDy=0;entryPerimeter=0;" parent="1" source="BQe-CCMixdXJj6wNmX5B-17" target="BQe-CCMixdXJj6wNmX5B-15" edge="1">
          <mxGeometry relative="1" as="geometry">
            <mxPoint x="670" y="530" as="targetPoint" />
            <Array as="points">
              <mxPoint x="670" y="600" />
              <mxPoint x="670" y="519" />
            </Array>
          </mxGeometry>
        </mxCell>
        <mxCell id="BQe-CCMixdXJj6wNmX5B-20" style="edgeStyle=orthogonalEdgeStyle;rounded=1;orthogonalLoop=1;jettySize=auto;html=1;exitX=0;exitY=0.5;exitDx=0;exitDy=0;fillColor=#fff2cc;strokeColor=#d6b656;dashed=1;" parent="1" source="BQe-CCMixdXJj6wNmX5B-18" target="BQe-CCMixdXJj6wNmX5B-15" edge="1">
          <mxGeometry relative="1" as="geometry">
            <mxPoint x="696" y="520" as="targetPoint" />
            <Array as="points">
              <mxPoint x="670" y="645" />
            </Array>
          </mxGeometry>
        </mxCell>
        <mxCell id="BQe-CCMixdXJj6wNmX5B-25" style="edgeStyle=orthogonalEdgeStyle;rounded=1;orthogonalLoop=1;jettySize=auto;html=1;entryX=0.128;entryY=1;entryDx=0;entryDy=0;entryPerimeter=0;exitX=0;exitY=0.5;exitDx=0;exitDy=0;fillColor=#fff2cc;strokeColor=#d6b656;dashed=1;" parent="1" source="BQe-CCMixdXJj6wNmX5B-24" target="BQe-CCMixdXJj6wNmX5B-15" edge="1">
          <mxGeometry relative="1" as="geometry" />
        </mxCell>
        <mxCell id="BQe-CCMixdXJj6wNmX5B-32" style="edgeStyle=orthogonalEdgeStyle;rounded=1;orthogonalLoop=1;jettySize=auto;html=1;entryX=0.5;entryY=0;entryDx=0;entryDy=0;fillColor=#d5e8d4;strokeColor=#82b366;" parent="1" target="BQe-CCMixdXJj6wNmX5B-36" edge="1">
          <mxGeometry relative="1" as="geometry">
            <mxPoint x="100" y="640" as="sourcePoint" />
            <Array as="points">
              <mxPoint x="100" y="640" />
              <mxPoint x="420" y="640" />
            </Array>
          </mxGeometry>
        </mxCell>
        <mxCell id="BQe-CCMixdXJj6wNmX5B-33" value="inject&lt;br&gt;All managers" style="edgeLabel;html=1;align=center;verticalAlign=middle;resizable=0;points=[];labelBackgroundColor=#CDA2BE;" parent="BQe-CCMixdXJj6wNmX5B-32" vertex="1" connectable="0">
          <mxGeometry x="-0.1873" y="2" relative="1" as="geometry">
            <mxPoint x="-23" as="offset" />
          </mxGeometry>
        </mxCell>
        <mxCell id="BQe-CCMixdXJj6wNmX5B-34" style="edgeStyle=orthogonalEdgeStyle;rounded=1;orthogonalLoop=1;jettySize=auto;html=1;exitX=0.5;exitY=1;exitDx=0;exitDy=0;fillColor=#dae8fc;strokeColor=#6c8ebf;" parent="1" source="BQe-CCMixdXJj6wNmX5B-36" edge="1">
          <mxGeometry relative="1" as="geometry">
            <mxPoint x="100" y="740" as="targetPoint" />
            <Array as="points">
              <mxPoint x="420" y="740" />
              <mxPoint x="100" y="740" />
            </Array>
          </mxGeometry>
        </mxCell>
        <mxCell id="BQe-CCMixdXJj6wNmX5B-35" value="bind&lt;br&gt;Symbol(&#39;ManagersFactory&#39;)" style="edgeLabel;html=1;align=center;verticalAlign=middle;resizable=0;points=[];labelBackgroundColor=#CDA2BE;" parent="BQe-CCMixdXJj6wNmX5B-34" vertex="1" connectable="0">
          <mxGeometry x="0.3368" y="4" relative="1" as="geometry">
            <mxPoint x="4" y="-4" as="offset" />
          </mxGeometry>
        </mxCell>
        <mxCell id="BQe-CCMixdXJj6wNmX5B-36" value="managers.factory.ts" style="rounded=1;whiteSpace=wrap;html=1;fillColor=#d5e8d4;strokeColor=#82b366;" parent="1" vertex="1">
          <mxGeometry x="330" y="670" width="180" height="40" as="geometry" />
        </mxCell>
        <mxCell id="3PKz2_B1ySC-uqAKX1qX-26" style="edgeStyle=orthogonalEdgeStyle;rounded=1;orthogonalLoop=1;jettySize=auto;html=1;entryX=0.128;entryY=1.004;entryDx=0;entryDy=0;entryPerimeter=0;exitX=0;exitY=0.5;exitDx=0;exitDy=0;fillColor=#fff2cc;strokeColor=#d6b656;dashed=1;" edge="1" parent="1" source="3PKz2_B1ySC-uqAKX1qX-1" target="BQe-CCMixdXJj6wNmX5B-15">
          <mxGeometry relative="1" as="geometry" />
        </mxCell>
        <mxCell id="3PKz2_B1ySC-uqAKX1qX-27" style="edgeStyle=orthogonalEdgeStyle;rounded=1;orthogonalLoop=1;jettySize=auto;html=1;exitX=0;exitY=0.5;exitDx=0;exitDy=0;fillColor=#fff2cc;strokeColor=#d6b656;dashed=1;" edge="1" parent="1" source="3PKz2_B1ySC-uqAKX1qX-5">
          <mxGeometry relative="1" as="geometry">
            <mxPoint x="670" y="520" as="targetPoint" />
          </mxGeometry>
        </mxCell>
        <mxCell id="3PKz2_B1ySC-uqAKX1qX-6" style="edgeStyle=orthogonalEdgeStyle;rounded=0;orthogonalLoop=1;jettySize=auto;html=1;exitX=0;exitY=0.5;exitDx=0;exitDy=0;fillColor=#d5e8d4;strokeColor=#82b366;" edge="1" parent="1" source="3PKz2_B1ySC-uqAKX1qX-7">
          <mxGeometry relative="1" as="geometry">
            <mxPoint x="99.99999999999977" y="579.7142857142858" as="targetPoint" />
          </mxGeometry>
        </mxCell>
        <mxCell id="3PKz2_B1ySC-uqAKX1qX-7" value="{manager-name}.manager.ts" style="rounded=1;whiteSpace=wrap;html=1;fillColor=#d5e8d4;strokeColor=#82b366;" vertex="1" parent="1">
          <mxGeometry x="330" y="560" width="180" height="40" as="geometry" />
        </mxCell>
        <mxCell id="3PKz2_B1ySC-uqAKX1qX-8" value="bind&lt;br&gt;Symbol(&#39;{ManagerName}Manager&#39;)" style="edgeLabel;html=1;align=center;verticalAlign=middle;resizable=0;points=[];labelBackgroundColor=#CDA2BE;" vertex="1" connectable="0" parent="1">
          <mxGeometry x="219.99714285714265" y="500" as="geometry">
            <mxPoint x="3" y="82" as="offset" />
          </mxGeometry>
        </mxCell>
        <mxCell id="3PKz2_B1ySC-uqAKX1qX-12" value="core.manager.mediator.ts" style="rounded=1;whiteSpace=wrap;html=1;fillColor=#d5e8d4;strokeColor=#82b366;" vertex="1" parent="1">
          <mxGeometry x="330" y="310" width="180" height="40" as="geometry" />
        </mxCell>
        <mxCell id="3PKz2_B1ySC-uqAKX1qX-14" style="edgeStyle=orthogonalEdgeStyle;rounded=1;orthogonalLoop=1;jettySize=auto;html=1;entryX=1;entryY=0.5;entryDx=0;entryDy=0;fillColor=#dae8fc;strokeColor=#6c8ebf;" edge="1" parent="1" source="3PKz2_B1ySC-uqAKX1qX-15" target="3PKz2_B1ySC-uqAKX1qX-12">
          <mxGeometry relative="1" as="geometry" />
        </mxCell>
        <mxCell id="3PKz2_B1ySC-uqAKX1qX-15" value="abstract.manager.mediator.ts" style="rounded=1;whiteSpace=wrap;html=1;fillColor=#dae8fc;strokeColor=#6c8ebf;" vertex="1" parent="1">
          <mxGeometry x="647" y="310" width="180" height="40" as="geometry" />
        </mxCell>
        <mxCell id="3PKz2_B1ySC-uqAKX1qX-16" value="methods and properties" style="swimlane;whiteSpace=wrap;html=1;fillColor=#f8cecc;strokeColor=#b85450;rounded=1;" vertex="1" parent="1">
          <mxGeometry x="710" y="370" width="390" height="90" as="geometry" />
        </mxCell>
        <mxCell id="3PKz2_B1ySC-uqAKX1qX-17" value="protected abstract applyAdministrator(app: ApplicationStorage): void" style="rounded=1;whiteSpace=wrap;html=1;fillColor=#fff2cc;strokeColor=#d6b656;" vertex="1" parent="3PKz2_B1ySC-uqAKX1qX-16">
          <mxGeometry x="10" y="40" width="370" height="30" as="geometry" />
        </mxCell>
        <mxCell id="3PKz2_B1ySC-uqAKX1qX-20" style="edgeStyle=orthogonalEdgeStyle;rounded=1;orthogonalLoop=1;jettySize=auto;html=1;exitX=0;exitY=0.5;exitDx=0;exitDy=0;fillColor=#fff2cc;strokeColor=#d6b656;dashed=1;entryX=0.125;entryY=0.975;entryDx=0;entryDy=0;entryPerimeter=0;" edge="1" parent="1" source="3PKz2_B1ySC-uqAKX1qX-17" target="3PKz2_B1ySC-uqAKX1qX-15">
          <mxGeometry relative="1" as="geometry">
            <mxPoint x="670" y="360" as="targetPoint" />
            <Array as="points">
              <mxPoint x="670" y="430" />
              <mxPoint x="670" y="349" />
            </Array>
          </mxGeometry>
        </mxCell>
        <mxCell id="3PKz2_B1ySC-uqAKX1qX-28" value="extends" style="edgeLabel;html=1;align=center;verticalAlign=middle;resizable=0;points=[];labelBackgroundColor=#CDA2BE;" vertex="1" connectable="0" parent="1">
          <mxGeometry x="610.0000000000001" y="330" as="geometry" />
        </mxCell>
        <mxCell id="3PKz2_B1ySC-uqAKX1qX-29" style="edgeStyle=orthogonalEdgeStyle;rounded=1;orthogonalLoop=1;jettySize=auto;html=1;entryX=0.5;entryY=0;entryDx=0;entryDy=0;fillColor=#d5e8d4;strokeColor=#82b366;" edge="1" parent="1">
          <mxGeometry relative="1" as="geometry">
            <mxPoint x="100" y="280" as="sourcePoint" />
            <Array as="points">
              <mxPoint x="100" y="280" />
              <mxPoint x="420" y="280" />
            </Array>
            <mxPoint x="420" y="310" as="targetPoint" />
          </mxGeometry>
        </mxCell>
        <mxCell id="3PKz2_B1ySC-uqAKX1qX-30" value="inject&lt;br&gt;All commands" style="edgeLabel;html=1;align=center;verticalAlign=middle;resizable=0;points=[];labelBackgroundColor=#CDA2BE;" vertex="1" connectable="0" parent="3PKz2_B1ySC-uqAKX1qX-29">
          <mxGeometry x="-0.1873" y="2" relative="1" as="geometry">
            <mxPoint x="-23" as="offset" />
          </mxGeometry>
        </mxCell>
        <mxCell id="3PKz2_B1ySC-uqAKX1qX-31" style="edgeStyle=orthogonalEdgeStyle;rounded=1;orthogonalLoop=1;jettySize=auto;html=1;exitX=0.5;exitY=1;exitDx=0;exitDy=0;fillColor=#dae8fc;strokeColor=#6c8ebf;" edge="1" parent="1">
          <mxGeometry relative="1" as="geometry">
            <mxPoint x="100" y="380" as="targetPoint" />
            <Array as="points">
              <mxPoint x="420" y="380" />
              <mxPoint x="100" y="380" />
            </Array>
            <mxPoint x="420" y="350" as="sourcePoint" />
          </mxGeometry>
        </mxCell>
        <mxCell id="3PKz2_B1ySC-uqAKX1qX-32" value="bind&lt;br&gt;Symbol(&#39;ManagersFactory&#39;)" style="edgeLabel;html=1;align=center;verticalAlign=middle;resizable=0;points=[];labelBackgroundColor=#CDA2BE;" vertex="1" connectable="0" parent="3PKz2_B1ySC-uqAKX1qX-31">
          <mxGeometry x="0.3368" y="4" relative="1" as="geometry">
            <mxPoint x="4" y="-4" as="offset" />
          </mxGeometry>
        </mxCell>
        <mxCell id="3PKz2_B1ySC-uqAKX1qX-34" style="edgeStyle=orthogonalEdgeStyle;rounded=0;orthogonalLoop=1;jettySize=auto;html=1;exitX=0;exitY=0.5;exitDx=0;exitDy=0;fillColor=#d5e8d4;strokeColor=#82b366;" edge="1" parent="1" source="3PKz2_B1ySC-uqAKX1qX-35">
          <mxGeometry relative="1" as="geometry">
            <mxPoint x="99.99999999999977" y="219.71428571428578" as="targetPoint" />
          </mxGeometry>
        </mxCell>
        <mxCell id="3PKz2_B1ySC-uqAKX1qX-35" value="core.{scope-name}.commands.ts" style="rounded=1;whiteSpace=wrap;html=1;fillColor=#d5e8d4;strokeColor=#82b366;" vertex="1" parent="1">
          <mxGeometry x="330" y="200" width="180" height="40" as="geometry" />
        </mxCell>
        <mxCell id="3PKz2_B1ySC-uqAKX1qX-36" value="bind&lt;br&gt;Symbol(&#39;{ScopeName}Commands&#39;)" style="edgeLabel;html=1;align=center;verticalAlign=middle;resizable=0;points=[];labelBackgroundColor=#CDA2BE;" vertex="1" connectable="0" parent="1">
          <mxGeometry x="219.99714285714265" y="140" as="geometry">
            <mxPoint x="3" y="82" as="offset" />
          </mxGeometry>
        </mxCell>
        <mxCell id="3PKz2_B1ySC-uqAKX1qX-37" style="edgeStyle=orthogonalEdgeStyle;rounded=0;orthogonalLoop=1;jettySize=auto;html=1;exitX=0;exitY=0.5;exitDx=0;exitDy=0;fillColor=#d5e8d4;strokeColor=#82b366;" edge="1" parent="1" source="3PKz2_B1ySC-uqAKX1qX-38">
          <mxGeometry relative="1" as="geometry">
            <mxPoint x="99.99999999999977" y="159.71428571428578" as="targetPoint" />
          </mxGeometry>
        </mxCell>
        <mxCell id="3PKz2_B1ySC-uqAKX1qX-38" value="core.logger.commands.ts" style="rounded=1;whiteSpace=wrap;html=1;fillColor=#d5e8d4;strokeColor=#82b366;" vertex="1" parent="1">
          <mxGeometry x="330" y="140" width="180" height="40" as="geometry" />
        </mxCell>
        <mxCell id="3PKz2_B1ySC-uqAKX1qX-39" style="edgeStyle=orthogonalEdgeStyle;rounded=0;orthogonalLoop=1;jettySize=auto;html=1;exitX=0;exitY=0.5;exitDx=0;exitDy=0;fillColor=#d5e8d4;strokeColor=#82b366;" edge="1" parent="1" source="3PKz2_B1ySC-uqAKX1qX-40">
          <mxGeometry relative="1" as="geometry">
            <mxPoint x="99.99999999999977" y="99.71428571428578" as="targetPoint" />
          </mxGeometry>
        </mxCell>
        <mxCell id="3PKz2_B1ySC-uqAKX1qX-40" value="core.profiler.commands.ts" style="rounded=1;whiteSpace=wrap;html=1;fillColor=#d5e8d4;strokeColor=#82b366;" vertex="1" parent="1">
          <mxGeometry x="330" y="80" width="180" height="40" as="geometry" />
        </mxCell>
        <mxCell id="3PKz2_B1ySC-uqAKX1qX-41" value="bind&lt;br&gt;Symbol(&#39;CoreLoggerCommands&#39;)" style="edgeLabel;html=1;align=center;verticalAlign=middle;resizable=0;points=[];labelBackgroundColor=#CDA2BE;" vertex="1" connectable="0" parent="1">
          <mxGeometry x="219.99714285714265" y="80" as="geometry">
            <mxPoint x="3" y="82" as="offset" />
          </mxGeometry>
        </mxCell>
        <mxCell id="3PKz2_B1ySC-uqAKX1qX-42" value="bind&lt;br&gt;Symbol(&#39;CoreProfilerCommands&#39;)" style="edgeLabel;html=1;align=center;verticalAlign=middle;resizable=0;points=[];labelBackgroundColor=#CDA2BE;" vertex="1" connectable="0" parent="1">
          <mxGeometry x="219.99714285714265" y="20" as="geometry">
            <mxPoint x="3" y="82" as="offset" />
          </mxGeometry>
        </mxCell>
      </root>
    </mxGraphModel>
  </diagram>
</mxfile>
